# xmcd
#
# Track frame offsets: 
#        150
#        15620
#        24942
#        33352
#        46861
#        56294
#
# Disc length: 924 seconds
#
# Revision: 0
# Processed by: cddbd v1.5.2PL0 Copyright (c) Steve Scherf et al.
# Submitted via: ExactAudioCopyFreeDBPlugin 1.0
#
DISCID=38039a06
DTITLE=Two Tons of Steel - Tangled in Tinsel
DYEAR=2011
DGENRE=Christmas
TTITLE0=Jingle Bells
TTITLE1=Here Comes Santa Claus
TTITLE2=Santa Claus is Comin' to Town
TTITLE3=If We Make It Through December
TTITLE4=Rockin' Around the Christmas Tree
TTITLE5=Please Mr Santa
EXTD=
EXTT0=
EXTT1=
EXTT2=
EXTT3=
EXTT4=
EXTT5=
PLAYORDER=
